# File created by Blade
# Date/Time:  Mon Nov 15 14:44:42 2010
#---------------------------------------------------------
:version 1.10
:name HOM
:units
  mass 1.0
  length 1.000000
  angle deg
:documentation
     Acclaim Skeleton File
:root
   axis xyz
   order TX TY TZ RX RY RZ
   position 0.000000 0.000000 0.000000
   orientation 0 0 0
:bonedata
   begin
      id 1
      name LeftUpLeg_dum
      direction 1.000000 0.000000 0.000000
      length 4.719518
      axis 0.0 0.0 0.0 xyz
   end
   begin
      id 2
      name RightUpLeg_dum
      direction -1.000000 0.000000 0.000000
      length 4.719518
      axis 0.0 0.0 0.0 xyz
   end
   begin
      id 3
      name Spine_dum
      direction 0.000000 1.000000 0.000000
      length 0.039370
      axis 0.0 0.0 0.0 xyz
   end
   begin
      id 4
      name LeftUpLeg
      direction 0.000000 -1.000000 0.000000
      length 19.141694
      axis 0.0 0.0 0.0 xyz
      dof rx ry rz
   end
   begin
      id 5
      name LeftLeg
      direction 0.000000 -1.000000 0.000000
      length 19.555040
      axis 0.0 0.0 0.0 xyz
      dof rx ry rz
   end
   begin
      id 6
      name LeftFoot
      direction 0.000000 -0.258819 0.965926
      length 6.929396
      axis 15.0 0.0 0.0 xyz
      dof rx ry rz
   end
   begin
      id 7
      name LeftToeBase
      direction 0.000000 0.000000 1.000000
      length 2.952750
      axis 0.0 0.0 0.0 xyz
      dof rx ry rz
   end
   begin
      id 8
      name RightUpLeg
      direction 0.000000 -1.000000 0.000000
      length 19.141694
      axis 0.0 0.0 0.0 xyz
      dof rx ry rz
   end
   begin
      id 9
      name RightLeg
      direction 0.000000 -1.000000 0.000000
      length 19.555040
      axis 0.0 0.0 0.0 xyz
      dof rx ry rz
   end
   begin
      id 10
      name RightFoot
      direction 0.000000 -0.258819 0.965926
      length 6.929396
      axis 15.0 0.0 0.0 xyz
      dof rx ry rz
   end
   begin
      id 11
      name RightToeBase
      direction 0.000000 0.000000 1.000000
      length 2.952750
      axis 0.0 0.0 0.0 xyz
      dof rx ry rz
   end
   begin
      id 12
      name Spine
      direction 0.000000 1.000000 0.000000
      length 11.965764
      axis 0.0 0.0 0.0 xyz
      dof rx ry rz
   end
   begin
      id 13
      name Spine1
      direction 0.000000 1.000000 0.000000
      length 0.000000
      axis 0.0 0.0 0.0 xyz
      dof rx ry rz
   end
   begin
      id 14
      name Spine1_dum1
      direction 0.000000 1.000000 0.000000
      length 9.788721
      axis 0.0 0.0 0.0 xyz
   end
   begin
      id 15
      name Spine1_dum2
      direction 0.000000 1.000000 0.000000
      length 9.788721
      axis 0.0 0.0 0.0 xyz
   end
   begin
      id 16
      name Spine1_dum3
      direction 0.000000 1.000000 0.000000
      length 9.788721
      axis 0.0 0.0 0.0 xyz
   end
   begin
      id 17
      name Neck
      direction 0.000000 1.000000 0.000000
      length 7.029632
      axis 0.0 0.0 0.0 xyz
      dof rx ry rz
   end
   begin
      id 18
      name Head
      direction 0.000000 1.000000 0.000000
      length 4.527550
      axis 0.0 0.0 0.0 xyz
      dof rx ry rz
   end
   begin
      id 19
      name LeftShoulder
      direction 1.000000 -0.000004 0.000000
      length 9.320257
      axis 0.0 0.0 -90.0 xyz
      dof rx ry rz
   end
   begin
      id 20
      name LeftArm
      direction 1.000000 -0.000004 0.000000
      length 12.801352
      axis 0.0 0.0 -90.0 xyz
      dof rx ry rz
   end
   begin
      id 21
      name LeftForeArm
      direction 1.000000 -0.000004 0.000000
      length 11.278127
      axis 0.0 0.0 -90.0 xyz
      dof rx ry rz
   end
   begin
      id 22
      name LeftHand
      direction 0.000000 0.000000 0.000000
      length 0.000000
      axis 0.0 0.0 -90.0 xyz
      dof rx ry rz
   end
   begin
      id 23
      name LeftHand_dum1
      direction 0.000000 0.000000 0.000000
      length 0.000000
      axis 0.0 0.0 -90.0 xyz
   end
   begin
      id 24
      name LeftHand_dum2
      direction 1.000000 -0.000004 0.000000
      length 3.937000
      axis 0.0 0.0 -90.0 xyz
   end
   begin
      id 25
      name LeftHandThumb
      direction 0.000000 0.000000 1.000000
      length 3.937000
      axis 0.0 0.0 -90.0 xyz
      dof rx ry rz
   end
   begin
      id 26
      name RightShoulder
      direction -1.000000 -0.000004 0.000000
      length 9.320257
      axis 0.0 0.0 90.0 xyz
      dof rx ry rz
   end
   begin
      id 27
      name RightArm
      direction -1.000000 -0.000004 0.000000
      length 12.801352
      axis 0.0 0.0 90.0 xyz
      dof rx ry rz
   end
   begin
      id 28
      name RightForeArm
      direction -1.000000 -0.000004 0.000000
      length 11.278127
      axis 0.0 0.0 90.0 xyz
      dof rx ry rz
   end
   begin
      id 29
      name RightHand
      direction 0.000000 0.000000 0.000000
      length 0.000000
      axis 0.0 0.0 90.0 xyz
      dof rx ry rz
   end
   begin
      id 30
      name RightHand_dum1
      direction 0.000000 0.000000 0.000000
      length 0.000000
      axis 0.0 0.0 90.0 xyz
   end
   begin
      id 31
      name RightHand_dum2
      direction -1.000000 -0.000004 0.000000
      length 5.393690
      axis 0.0 0.0 90.0 xyz
   end
   begin
      id 32
      name RightHandThumb
      direction 0.000000 0.000000 1.000000
      length 3.937000
      axis 0.0 0.0 90.0 xyz
      dof rx ry rz
   end
:hierarchy
   begin
      root LeftUpLeg_dum RightUpLeg_dum Spine_dum
      LeftUpLeg_dum LeftUpLeg
      RightUpLeg_dum RightUpLeg
      Spine_dum Spine
      LeftUpLeg LeftLeg
      LeftLeg LeftFoot
      LeftFoot LeftToeBase
      RightUpLeg RightLeg
      RightLeg RightFoot
      RightFoot RightToeBase
      Spine Spine1
      Spine1 Spine1_dum1 Spine1_dum2 Spine1_dum3
      Spine1_dum1 Neck
      Spine1_dum2 LeftShoulder
      Spine1_dum3 RightShoulder
      Neck Head
      LeftShoulder LeftArm
      LeftArm LeftForeArm
      LeftForeArm LeftHand
      LeftHand LeftHand_dum1 LeftHand_dum2
      LeftHand_dum1 LeftHandThumb
      RightShoulder RightArm
      RightArm RightForeArm
      RightForeArm RightHand
      RightHand RightHand_dum1 RightHand_dum2
      RightHand_dum1 RightHandThumb
   end

# File created by Blade
# Date/Time:  Mon Nov 15 14:56:25 2010
# Frame Rate: 200.000 fps
#------------------------------------------------------
:FULLY-SPECIFIED
:DEGREES
832
root  1.963739 41.483834 102.609670 -17.284315 1.753074 0.191786
LeftUpLeg  17.390675 9.868407 0.196749
LeftLeg  -2.750530 0.000000 -0.000000
LeftFoot  10.996594 4.355236 5.538420
LeftToeBase  -14.515864 0.000000 -0.000000
RightUpLeg  18.015383 -6.883924 0.052695
RightLeg  -2.452697 0.000000 -0.000000
RightFoot  6.804853 -10.587295 -10.094222
RightToeBase  -26.350876 0.000000 -0.000000
Spine  12.850703 -1.675711 0.542904
Spine1  0.170220 0.562541 -1.842180
Neck  13.079329 -2.276270 -2.612681
Head  -15.571534 -5.914655 2.496284
LeftShoulder  -10.088993 3.387873 16.637366
LeftArm  14.729361 -35.884204 -39.651901
LeftForeArm  8.351359 -0.000000 0.000000
LeftHand  -3.987290 8.344749 -5.912236
LeftHandThumb  0.000000 -0.000000 0.000000
RightShoulder  -13.395195 -13.012948 -13.235679
RightArm  15.861003 18.287664 38.794145
RightForeArm  9.061469 -0.000000 0.000000
RightHand  10.747619 60.878751 -13.865839
RightHandThumb  0.000000 -0.000000 0.000000
833
root  1.972747 41.488844 102.654613 -17.226010 1.743349 0.191883
LeftUpLeg  17.558246 10.117022 0.260087
LeftLeg  -3.033857 0.000000 -0.000000
LeftFoot  11.044947 4.108734 5.582175
LeftToeBase  -14.401420 0.000000 -0.000000
RightUpLeg  18.124800 -6.710990 0.087714
RightLeg  -2.663983 0.000000 -0.000000
RightFoot  6.870862 -10.722658 -9.957562
RightToeBase  -26.326774 0.000000 -0.000000
Spine  12.866636 -1.687362 0.538180
Spine1  0.067421 0.547431 -1.811075
Neck  13.015431 -2.203255 -2.646535
Head  -15.431391 -5.960567 2.567330
LeftShoulder  -10.267249 3.323035 17.118297
LeftArm  14.656598 -36.418334 -39.136583
LeftForeArm  8.260290 -0.000000 0.000000
LeftHand  -4.070295 8.008589 -4.829266
LeftHandThumb  0.000000 -0.000000 0.000000
RightShoulder  -13.557577 -13.035078 -13.693728
RightArm  15.733210 18.748899 38.291791
RightForeArm  9.168851 -0.000000 0.000000
RightHand  9.846447 60.283644 -15.054522
RightHandThumb  0.000000 -0.000000 0.000000
834
root  1.981241 41.495348 102.699373 -17.273666 1.735123 0.180295
LeftUpLeg  17.844467 10.426550 0.373703
LeftLeg  -3.336044 0.000000 -0.000000
LeftFoot  11.115533 3.788495 5.556427
LeftToeBase  -14.355320 0.000000 -0.000000
RightUpLeg  18.345004 -6.576703 0.112132
RightLeg  -2.877168 0.000000 -0.000000
RightFoot  6.947904 -10.837336 -9.853508
RightToeBase  -26.354895 0.000000 -0.000000
Spine  12.980543 -1.664431 0.469722
Spine1  -0.039258 0.542930 -1.615224
Neck  13.027026 -2.133698 -2.753625
Head  -15.363552 -6.029349 2.636139
LeftShoulder  -10.275906 3.181524 17.427964
LeftArm  14.304654 -37.052681 -38.329624
LeftForeArm  8.076552 -0.000000 0.000000
LeftHand  -3.799389 7.990933 -4.471680
LeftHandThumb  0.000000 -0.000000 0.000000
RightShoulder  -13.643043 -12.969050 -14.192077
RightArm  15.413160 19.364584 37.654061
RightForeArm  9.085976 -0.000000 0.000000
RightHand  10.669143 59.879629 -13.633728
RightHandThumb  0.000000 -0.000000 0.000000
835
root  1.989995 41.501772 102.743225 -17.321320 1.726888 0.168714
LeftUpLeg  18.131601 10.735516 0.489006
LeftLeg  -3.638231 0.000000 -0.000000
LeftFoot  11.186238 3.468288 5.530293
LeftToeBase  -14.309221 0.000000 -0.000000
RightUpLeg  18.565206 -6.442509 0.137063
RightLeg  -3.090353 0.000000 -0.000000
RightFoot  7.024762 -10.952151 -9.749571
RightToeBase  -26.383017 0.000000 -0.000000
Spine  13.094422 -1.641364 0.401312
Spine1  -0.145951 0.538794 -1.419365
Neck  13.038490 -2.064120 -2.860695
Head  -15.295788 -6.098211 2.704875
LeftShoulder  -10.285328 3.040062 17.737612
LeftArm  13.938477 -37.682964 -37.510927
LeftForeArm  7.892814 -0.000000 0.000000
LeftHand  -3.528612 7.971603 -4.114198
LeftHandThumb  0.000000 -0.000000 0.000000
RightShoulder  -13.729073 -12.903748 -14.690396
RightArm  15.084610 19.976847 37.010235
RightForeArm  9.003101 -0.000000 0.000000
RightHand  11.461897 59.465665 -12.241727
RightHandThumb  0.000000 -0.000000 0.000000
